P2 
 4 4 
 255 
255 0 255 0 
0 255 0 255 
100 200 150 100 
50 150 200 0 
