P2 
 4 4 
 255 
0 255 0 255 
255 0 255 0 
155 55 105 155 
205 105 55 255 
